<mxfile host="app.diagrams.net" agent="Mozilla/5.0 (Windows NT 10.0; Win64; x64) AppleWebKit/537.36 (KHTML, like Gecko) Chrome/138.0.0.0 Safari/537.36 Edg/138.0.0.0" version="28.0.6">
  <diagram name="Page-1" id="ryrmgloJzmJUL8d0fgLl">
    <mxGraphModel dx="1098" dy="614" grid="1" gridSize="10" guides="1" tooltips="1" connect="1" arrows="1" fold="1" page="1" pageScale="1" pageWidth="850" pageHeight="1100" math="0" shadow="0">
      <root>
        <mxCell id="0" />
        <mxCell id="1" parent="0" />
        <mxCell id="0c-XRUJrRKab2AX7CRwr-37" style="edgeStyle=orthogonalEdgeStyle;rounded=0;orthogonalLoop=1;jettySize=auto;html=1;exitX=0.5;exitY=1;exitDx=0;exitDy=0;exitPerimeter=0;entryX=0.5;entryY=0;entryDx=0;entryDy=0;" edge="1" parent="1" source="0c-XRUJrRKab2AX7CRwr-3" target="0c-XRUJrRKab2AX7CRwr-36">
          <mxGeometry relative="1" as="geometry" />
        </mxCell>
        <mxCell id="0c-XRUJrRKab2AX7CRwr-3" value="Mula" style="strokeWidth=2;html=1;shape=mxgraph.flowchart.terminator;whiteSpace=wrap;" vertex="1" parent="1">
          <mxGeometry x="115" y="20" width="100" height="60" as="geometry" />
        </mxCell>
        <mxCell id="0c-XRUJrRKab2AX7CRwr-11" style="edgeStyle=orthogonalEdgeStyle;rounded=0;orthogonalLoop=1;jettySize=auto;html=1;exitX=0.5;exitY=1;exitDx=0;exitDy=0;entryX=0.5;entryY=0;entryDx=0;entryDy=0;" edge="1" parent="1" source="0c-XRUJrRKab2AX7CRwr-5" target="0c-XRUJrRKab2AX7CRwr-7">
          <mxGeometry relative="1" as="geometry" />
        </mxCell>
        <mxCell id="0c-XRUJrRKab2AX7CRwr-5" value="Permohonan pinjaman&lt;div&gt;&amp;nbsp;asset&lt;/div&gt;" style="shape=parallelogram;html=1;strokeWidth=2;perimeter=parallelogramPerimeter;whiteSpace=wrap;rounded=1;arcSize=12;size=0.23;" vertex="1" parent="1">
          <mxGeometry x="70" y="230" width="190" height="60" as="geometry" />
        </mxCell>
        <mxCell id="0c-XRUJrRKab2AX7CRwr-12" style="edgeStyle=orthogonalEdgeStyle;rounded=0;orthogonalLoop=1;jettySize=auto;html=1;exitX=0.5;exitY=1;exitDx=0;exitDy=0;entryX=0.5;entryY=0;entryDx=0;entryDy=0;" edge="1" parent="1" source="0c-XRUJrRKab2AX7CRwr-7" target="0c-XRUJrRKab2AX7CRwr-8">
          <mxGeometry relative="1" as="geometry" />
        </mxCell>
        <mxCell id="0c-XRUJrRKab2AX7CRwr-7" value="Semakan Asset" style="rounded=1;whiteSpace=wrap;html=1;absoluteArcSize=1;arcSize=14;strokeWidth=2;" vertex="1" parent="1">
          <mxGeometry x="95" y="330" width="140" height="70" as="geometry" />
        </mxCell>
        <mxCell id="0c-XRUJrRKab2AX7CRwr-8" value="Menunggu Keputusan" style="rounded=1;whiteSpace=wrap;html=1;absoluteArcSize=1;arcSize=14;strokeWidth=2;" vertex="1" parent="1">
          <mxGeometry x="95" y="440" width="140" height="70" as="geometry" />
        </mxCell>
        <mxCell id="0c-XRUJrRKab2AX7CRwr-22" style="edgeStyle=orthogonalEdgeStyle;rounded=0;orthogonalLoop=1;jettySize=auto;html=1;exitX=1;exitY=0.5;exitDx=0;exitDy=0;exitPerimeter=0;entryX=0;entryY=0.5;entryDx=0;entryDy=0;entryPerimeter=0;" edge="1" parent="1" source="0c-XRUJrRKab2AX7CRwr-9" target="0c-XRUJrRKab2AX7CRwr-25">
          <mxGeometry relative="1" as="geometry">
            <mxPoint x="290" y="590" as="targetPoint" />
            <Array as="points">
              <mxPoint x="262" y="590" />
              <mxPoint x="262" y="591" />
            </Array>
          </mxGeometry>
        </mxCell>
        <mxCell id="0c-XRUJrRKab2AX7CRwr-23" value="Tidak" style="edgeLabel;html=1;align=center;verticalAlign=middle;resizable=0;points=[];" vertex="1" connectable="0" parent="0c-XRUJrRKab2AX7CRwr-22">
          <mxGeometry x="-0.2982" relative="1" as="geometry">
            <mxPoint as="offset" />
          </mxGeometry>
        </mxCell>
        <mxCell id="0c-XRUJrRKab2AX7CRwr-9" value="Diluluskan" style="strokeWidth=2;html=1;shape=mxgraph.flowchart.decision;whiteSpace=wrap;" vertex="1" parent="1">
          <mxGeometry x="98" y="540" width="135" height="100" as="geometry" />
        </mxCell>
        <mxCell id="0c-XRUJrRKab2AX7CRwr-14" style="edgeStyle=orthogonalEdgeStyle;rounded=0;orthogonalLoop=1;jettySize=auto;html=1;exitX=0.5;exitY=1;exitDx=0;exitDy=0;entryX=0.5;entryY=0;entryDx=0;entryDy=0;entryPerimeter=0;" edge="1" parent="1" source="0c-XRUJrRKab2AX7CRwr-8" target="0c-XRUJrRKab2AX7CRwr-9">
          <mxGeometry relative="1" as="geometry" />
        </mxCell>
        <mxCell id="0c-XRUJrRKab2AX7CRwr-15" value="End" style="strokeWidth=2;html=1;shape=mxgraph.flowchart.terminator;whiteSpace=wrap;" vertex="1" parent="1">
          <mxGeometry x="115" y="720" width="100" height="60" as="geometry" />
        </mxCell>
        <mxCell id="0c-XRUJrRKab2AX7CRwr-16" style="edgeStyle=orthogonalEdgeStyle;rounded=0;orthogonalLoop=1;jettySize=auto;html=1;exitX=0.5;exitY=1;exitDx=0;exitDy=0;exitPerimeter=0;entryX=0.5;entryY=0;entryDx=0;entryDy=0;entryPerimeter=0;" edge="1" parent="1" source="0c-XRUJrRKab2AX7CRwr-9" target="0c-XRUJrRKab2AX7CRwr-15">
          <mxGeometry relative="1" as="geometry" />
        </mxCell>
        <mxCell id="0c-XRUJrRKab2AX7CRwr-17" value="Ya" style="edgeLabel;html=1;align=center;verticalAlign=middle;resizable=0;points=[];" vertex="1" connectable="0" parent="0c-XRUJrRKab2AX7CRwr-16">
          <mxGeometry x="-0.205" y="-2" relative="1" as="geometry">
            <mxPoint as="offset" />
          </mxGeometry>
        </mxCell>
        <mxCell id="0c-XRUJrRKab2AX7CRwr-27" style="edgeStyle=orthogonalEdgeStyle;rounded=0;orthogonalLoop=1;jettySize=auto;html=1;exitX=0.5;exitY=0;exitDx=0;exitDy=0;exitPerimeter=0;entryX=1;entryY=0.25;entryDx=0;entryDy=0;" edge="1" parent="1" source="0c-XRUJrRKab2AX7CRwr-25" target="0c-XRUJrRKab2AX7CRwr-5">
          <mxGeometry relative="1" as="geometry">
            <Array as="points">
              <mxPoint x="378" y="247" />
            </Array>
          </mxGeometry>
        </mxCell>
        <mxCell id="0c-XRUJrRKab2AX7CRwr-28" value="Ya" style="edgeLabel;html=1;align=center;verticalAlign=middle;resizable=0;points=[];" vertex="1" connectable="0" parent="0c-XRUJrRKab2AX7CRwr-27">
          <mxGeometry x="-0.7163" y="1" relative="1" as="geometry">
            <mxPoint x="1" as="offset" />
          </mxGeometry>
        </mxCell>
        <mxCell id="0c-XRUJrRKab2AX7CRwr-25" value="Memohon semula" style="strokeWidth=2;html=1;shape=mxgraph.flowchart.decision;whiteSpace=wrap;" vertex="1" parent="1">
          <mxGeometry x="310" y="540" width="135" height="100" as="geometry" />
        </mxCell>
        <mxCell id="0c-XRUJrRKab2AX7CRwr-29" style="edgeStyle=orthogonalEdgeStyle;rounded=0;orthogonalLoop=1;jettySize=auto;html=1;exitX=0.5;exitY=1;exitDx=0;exitDy=0;exitPerimeter=0;entryX=1;entryY=0.5;entryDx=0;entryDy=0;entryPerimeter=0;" edge="1" parent="1" source="0c-XRUJrRKab2AX7CRwr-25" target="0c-XRUJrRKab2AX7CRwr-15">
          <mxGeometry relative="1" as="geometry" />
        </mxCell>
        <mxCell id="0c-XRUJrRKab2AX7CRwr-30" value="Tidak" style="edgeLabel;html=1;align=center;verticalAlign=middle;resizable=0;points=[];" vertex="1" connectable="0" parent="0c-XRUJrRKab2AX7CRwr-29">
          <mxGeometry x="-0.5817" y="2" relative="1" as="geometry">
            <mxPoint as="offset" />
          </mxGeometry>
        </mxCell>
        <mxCell id="0c-XRUJrRKab2AX7CRwr-39" style="edgeStyle=orthogonalEdgeStyle;rounded=0;orthogonalLoop=1;jettySize=auto;html=1;exitX=0.5;exitY=1;exitDx=0;exitDy=0;exitPerimeter=0;entryX=0.5;entryY=0;entryDx=0;entryDy=0;" edge="1" parent="1" source="0c-XRUJrRKab2AX7CRwr-32" target="0c-XRUJrRKab2AX7CRwr-34">
          <mxGeometry relative="1" as="geometry" />
        </mxCell>
        <mxCell id="0c-XRUJrRKab2AX7CRwr-32" value="Mula" style="strokeWidth=2;html=1;shape=mxgraph.flowchart.terminator;whiteSpace=wrap;" vertex="1" parent="1">
          <mxGeometry x="560" y="20" width="100" height="60" as="geometry" />
        </mxCell>
        <mxCell id="0c-XRUJrRKab2AX7CRwr-40" style="edgeStyle=orthogonalEdgeStyle;rounded=0;orthogonalLoop=1;jettySize=auto;html=1;exitX=0.5;exitY=1;exitDx=0;exitDy=0;entryX=0.5;entryY=0;entryDx=0;entryDy=0;" edge="1" parent="1" source="0c-XRUJrRKab2AX7CRwr-34" target="0c-XRUJrRKab2AX7CRwr-35">
          <mxGeometry relative="1" as="geometry" />
        </mxCell>
        <mxCell id="0c-XRUJrRKab2AX7CRwr-34" value="Admin login" style="rounded=1;whiteSpace=wrap;html=1;absoluteArcSize=1;arcSize=14;strokeWidth=2;" vertex="1" parent="1">
          <mxGeometry x="540" y="105" width="140" height="70" as="geometry" />
        </mxCell>
        <mxCell id="0c-XRUJrRKab2AX7CRwr-43" style="edgeStyle=orthogonalEdgeStyle;rounded=0;orthogonalLoop=1;jettySize=auto;html=1;exitX=0.5;exitY=1;exitDx=0;exitDy=0;entryX=0.5;entryY=0;entryDx=0;entryDy=0;" edge="1" parent="1" source="0c-XRUJrRKab2AX7CRwr-35" target="0c-XRUJrRKab2AX7CRwr-41">
          <mxGeometry relative="1" as="geometry" />
        </mxCell>
        <mxCell id="0c-XRUJrRKab2AX7CRwr-35" value="Semakan asset" style="rounded=1;whiteSpace=wrap;html=1;absoluteArcSize=1;arcSize=14;strokeWidth=2;" vertex="1" parent="1">
          <mxGeometry x="540" y="200" width="140" height="70" as="geometry" />
        </mxCell>
        <mxCell id="0c-XRUJrRKab2AX7CRwr-38" style="edgeStyle=orthogonalEdgeStyle;rounded=0;orthogonalLoop=1;jettySize=auto;html=1;exitX=0.5;exitY=1;exitDx=0;exitDy=0;" edge="1" parent="1" source="0c-XRUJrRKab2AX7CRwr-36" target="0c-XRUJrRKab2AX7CRwr-5">
          <mxGeometry relative="1" as="geometry" />
        </mxCell>
        <mxCell id="0c-XRUJrRKab2AX7CRwr-36" value="User Login" style="rounded=1;whiteSpace=wrap;html=1;absoluteArcSize=1;arcSize=14;strokeWidth=2;" vertex="1" parent="1">
          <mxGeometry x="95" y="120" width="140" height="70" as="geometry" />
        </mxCell>
        <mxCell id="0c-XRUJrRKab2AX7CRwr-41" value="Semak Kelulusan" style="rounded=1;whiteSpace=wrap;html=1;absoluteArcSize=1;arcSize=14;strokeWidth=2;" vertex="1" parent="1">
          <mxGeometry x="540" y="310" width="140" height="70" as="geometry" />
        </mxCell>
        <mxCell id="0c-XRUJrRKab2AX7CRwr-48" style="edgeStyle=orthogonalEdgeStyle;rounded=0;orthogonalLoop=1;jettySize=auto;html=1;exitX=0.5;exitY=1;exitDx=0;exitDy=0;exitPerimeter=0;entryX=0.5;entryY=0;entryDx=0;entryDy=0;" edge="1" parent="1" source="0c-XRUJrRKab2AX7CRwr-42" target="0c-XRUJrRKab2AX7CRwr-46">
          <mxGeometry relative="1" as="geometry" />
        </mxCell>
        <mxCell id="0c-XRUJrRKab2AX7CRwr-49" value="Ya" style="edgeLabel;html=1;align=center;verticalAlign=middle;resizable=0;points=[];" vertex="1" connectable="0" parent="0c-XRUJrRKab2AX7CRwr-48">
          <mxGeometry x="-0.3125" y="1" relative="1" as="geometry">
            <mxPoint as="offset" />
          </mxGeometry>
        </mxCell>
        <mxCell id="0c-XRUJrRKab2AX7CRwr-42" value="Diluluskan" style="strokeWidth=2;html=1;shape=mxgraph.flowchart.decision;whiteSpace=wrap;" vertex="1" parent="1">
          <mxGeometry x="542.5" y="420" width="135" height="100" as="geometry" />
        </mxCell>
        <mxCell id="0c-XRUJrRKab2AX7CRwr-44" style="edgeStyle=orthogonalEdgeStyle;rounded=0;orthogonalLoop=1;jettySize=auto;html=1;exitX=0.5;exitY=1;exitDx=0;exitDy=0;entryX=0.5;entryY=0;entryDx=0;entryDy=0;entryPerimeter=0;" edge="1" parent="1" source="0c-XRUJrRKab2AX7CRwr-41" target="0c-XRUJrRKab2AX7CRwr-42">
          <mxGeometry relative="1" as="geometry" />
        </mxCell>
        <mxCell id="0c-XRUJrRKab2AX7CRwr-46" value="Memproses permohonan" style="rounded=1;whiteSpace=wrap;html=1;absoluteArcSize=1;arcSize=14;strokeWidth=2;" vertex="1" parent="1">
          <mxGeometry x="540" y="552" width="140" height="70" as="geometry" />
        </mxCell>
        <mxCell id="0c-XRUJrRKab2AX7CRwr-50" value="End" style="strokeWidth=2;html=1;shape=mxgraph.flowchart.terminator;whiteSpace=wrap;" vertex="1" parent="1">
          <mxGeometry x="560" y="670" width="100" height="60" as="geometry" />
        </mxCell>
        <mxCell id="0c-XRUJrRKab2AX7CRwr-51" style="edgeStyle=orthogonalEdgeStyle;rounded=0;orthogonalLoop=1;jettySize=auto;html=1;exitX=0.5;exitY=1;exitDx=0;exitDy=0;entryX=0.5;entryY=0;entryDx=0;entryDy=0;entryPerimeter=0;" edge="1" parent="1" source="0c-XRUJrRKab2AX7CRwr-46" target="0c-XRUJrRKab2AX7CRwr-50">
          <mxGeometry relative="1" as="geometry" />
        </mxCell>
        <mxCell id="0c-XRUJrRKab2AX7CRwr-52" style="edgeStyle=orthogonalEdgeStyle;rounded=0;orthogonalLoop=1;jettySize=auto;html=1;exitX=1;exitY=0.5;exitDx=0;exitDy=0;exitPerimeter=0;entryX=1;entryY=0.5;entryDx=0;entryDy=0;entryPerimeter=0;" edge="1" parent="1" source="0c-XRUJrRKab2AX7CRwr-42" target="0c-XRUJrRKab2AX7CRwr-50">
          <mxGeometry relative="1" as="geometry" />
        </mxCell>
        <mxCell id="0c-XRUJrRKab2AX7CRwr-53" value="Tidak" style="edgeLabel;html=1;align=center;verticalAlign=middle;resizable=0;points=[];" vertex="1" connectable="0" parent="0c-XRUJrRKab2AX7CRwr-52">
          <mxGeometry x="-0.3878" y="1" relative="1" as="geometry">
            <mxPoint as="offset" />
          </mxGeometry>
        </mxCell>
      </root>
    </mxGraphModel>
  </diagram>
</mxfile>
